# xmcd
# Track frame offsets:
# 150
# 15345
# 30104
# 50568
# 64119
# 82732
# 100628
# 119394
# 133034
# 151852
# 168989
# 189918
# 206405
# 223115
# 240891
#
# Disc length: 3481 seconds
# Revision: 0
# Processed by: cddbd v1.5.2PL0 Copyright (c) Steve Scherf et al.
# Submitted via: VisiTrax 2.11.0.264 - For more info visit www.synapsa.com
#
DISCID=ac0d970f
DTITLE=Country - ASK72-2
DYEAR=1900
DGENRE=Country
TTITLE0=Aldean, Jason - Amarillo Sky
TTITLE1=Aldean, Jason - Johnny Cash
TTITLE2=Carroll, Jason Michael - Alyssa Lies
TTITLE3=Turner, Josh - Me And God
TTITLE4=Pickler, Kellie - Didn't You Know How Much I Loved You
TTITLE5=Chesney, Kenny - Beer In Mexico
TTITLE6=McBride, Martina - anyway
TTITLE7=Lambert, Miranda - Crazy Ex-Girlfriend
TTITLE8=Lambert, Miranda - Famous In A Small Town
TTITLE9=Green, Pat - Feels Just Like It Should
TTITLE10=Rascal Flatts - Life Is A Highway
TTITLE11=Rascal Flatts - Stand
TTITLE12=Swift, Taylor - Teardrops On My Guitar
TTITLE13=Swift, Taylor - Tim McGraw
TTITLE14=McGraw, Tim - Lthe Last Dollar "Fly Away"
EXTD=
EXTT0=
EXTT1=
EXTT2=
EXTT3=
EXTT4=
EXTT5=
EXTT6=
EXTT7=
EXTT8=
EXTT9=
EXTT10=
EXTT11=
EXTT12=
EXTT13=
EXTT14=
PLAYORDER=
